<svg width="900" height="600" viewBox="0 0 900 600" fill="none" xmlns="http://www.w3.org/2000/svg">
<rect y="450" width="150" height="149" fill="#5D6E7A" fill-opacity="0.05"/>
<rect x="750" y="450" width="150" height="149" fill="#5D6E7A" fill-opacity="0.05"/>
<rect x="150" y="150" width="150" height="150" fill="#5D6E7A" fill-opacity="0.3"/>
<rect x="599" y="301" width="151" height="149" fill="#5D6E7A" fill-opacity="0.22"/>
<rect x="450" y="450" width="149" height="150" fill="#5D6E7A" fill-opacity="0.05"/>
<rect x="750" y="151" width="150" height="149" fill="#5D6E7A" fill-opacity="0.1"/>
<rect x="300" width="150" height="150" fill="#5D6E7A" fill-opacity="0.1"/>
<rect x="300.5" y="150.5" width="299" height="299" stroke="#5D6E7A"/>
<line y1="449.5" x2="900" y2="449.5" stroke="#5D6E7A"/>
<line y1="299.5" x2="300" y2="299.5" stroke="#5D6E7A"/>
<line x1="900" y1="300.5" x2="600" y2="300.5" stroke="#5D6E7A"/>
<line y1="150.5" x2="300" y2="150.5" stroke="#5D6E7A"/>
<line x1="900" y1="150.5" x2="600" y2="150.5" stroke="#5D6E7A"/>
<line x1="300.5" y1="2.18557e-08" x2="300.5" y2="150" stroke="#5D6E7A"/>
<line x1="150.5" y1="2.18557e-08" x2="150.5" y2="600" stroke="#5D6E7A"/>
<line x1="300.5" y1="450" x2="300.5" y2="600" stroke="#5D6E7A"/>
<line x1="450.5" y1="2.18557e-08" x2="450.5" y2="150" stroke="#5D6E7A"/>
<line x1="450.5" y1="450" x2="450.5" y2="600" stroke="#5D6E7A"/>
<line x1="599.5" y1="2.18557e-08" x2="599.5" y2="150" stroke="#5D6E7A"/>
<line x1="750.5" y1="2.18557e-08" x2="750.5" y2="150" stroke="#5D6E7A"/>
<line x1="750.5" y1="150" x2="750.5" y2="300" stroke="#5D6E7A"/>
<line x1="750.5" y1="300" x2="750.5" y2="600" stroke="#5D6E7A"/>
<line x1="599.5" y1="450" x2="599.5" y2="600" stroke="#5D6E7A"/>
<defs>
<clipPath id="clip0_277_50">
<rect width="60" height="60" fill="white" transform="translate(191 190)"/>
</clipPath>
<clipPath id="clip1_277_50">
<rect width="60" height="60" fill="white" transform="translate(45 345)"/>
</clipPath>
<clipPath id="clip2_277_50">
<rect width="60" height="60" fill="white" transform="translate(492 497)"/>
</clipPath>
<clipPath id="clip3_277_50">
<rect width="60" height="60" fill="white" transform="translate(645 40)"/>
</clipPath>
<clipPath id="clip4_277_50">
<rect width="60" height="60" fill="white" transform="translate(349 40)"/>
</clipPath>
<clipPath id="clip5_277_50">
<rect width="60" height="60" fill="white" transform="translate(801 497)"/>
</clipPath>
</defs>
</svg>
